<?xml version="1.0" encoding="utf-8"?>
<!-- Generator: Adobe Illustrator 21.1.0, SVG Export Plug-In . SVG Version: 6.00 Build 0)  -->
<svg version="1.1" id="Layer_1" xmlns="http://www.w3.org/2000/svg" xmlns:xlink="http://www.w3.org/1999/xlink" x="0px" y="0px"
	 viewBox="0 0 200 55.4" enable-background="new 0 0 200 55.4" xml:space="preserve">
<title>Logos</title>
<g>
	<path d="M3.6,13c7.5,0,15,0,22.5,0c0,0.4,0,0.7,0,1.1c-6.4,8-12.8,16-19.2,24c6.5,0,12.9,0,19.4,0c0,0.7,0,1.5,0,2.2
		c-7.8,0-15.7,0-23.5,0c0-0.3,0-0.6,0-0.9C9.2,31.3,15.6,23.3,22,15.2c-6.1,0-12.2,0-18.3,0C3.6,14.5,3.6,13.8,3.6,13L3.6,13z"/>
	<path d="M74.2,13c0.8,0,1.7,0,2.5,0c0,8.4,0,16.7,0,25.1c4.3,0,8.6,0,12.9,0c0,0.7,0,1.5,0,2.2c-5.1,0-10.2,0-15.4,0
		C74.1,31.2,74.1,22.1,74.2,13L74.2,13z"/>
	<path d="M128,22.5c-0.9-3.2-3.1-6-5.9-7.7c-2.9-1.8-6.5-2.5-9.9-1.9c-3.8,0.6-7.4,2.9-9.4,6.2c-2.4,3.7-2.8,8.6-1.3,12.7
		c1.1,2.9,3.2,5.5,5.9,7c3.6,2.1,8,2.5,11.9,1.1c3-1,5.7-3.2,7.3-5.9C128.6,30.6,129.1,26.3,128,22.5z M123.5,34
		c-1.7,2.2-4.3,3.8-7.1,4.2c-3.1,0.5-6.4-0.3-8.8-2.3c-2.4-1.9-4-4.9-4.3-8c-0.3-3.2,0.7-6.6,2.9-9c1.6-1.8,3.7-3,6-3.5
		c3.1-0.7,6.6,0,9.2,1.9c2.5,1.8,4.1,4.7,4.5,7.7C126.2,28.1,125.4,31.5,123.5,34z"/>
	<path d="M156.8,30.7c-0.9-1.4-1.8-2.9-3.1-4c0.9-0.4,1.7-0.9,2.5-1.5c3.1-2.6,2.9-8.2-0.5-10.5c-1.7-1.2-3.9-1.7-6.1-1.7
		c-2.4,0-4.7,0-7.1,0c0,9.1,0,18.2,0,27.3h2.5c0-4.3,0-8.6,0-12.9c2.1,0.1,4.4-0.4,6.4,0.6c1.7,1,2.6,2.8,3.7,4.4
		c1.6,2.6,3.2,5.3,4.9,7.9c1,0,2,0,3,0C160.9,37.1,158.9,33.9,156.8,30.7z M149.9,25.2c-1.6,0-3.2,0-4.8,0c0-3.3,0-6.7,0-10
		c1.8,0,3.6-0.1,5.3,0.1c1.8,0.2,3.8,0.8,4.7,2.5c0.9,1.8,0.8,4.2-0.6,5.7C153.3,24.7,151.5,25.1,149.9,25.2z"/>
	<path d="M49.8,12.8c-0.5,0-0.9,0-1.4,0c-4.1,9.2-8.2,18.4-12.3,27.5c0.9,0,1.8,0,2.6,0c1.4-3.1,2.7-6.2,4.1-9.3c4.1,0,8.3,0,12.4,0
		c1.4,3.1,2.7,6.2,4.1,9.3c0.9,0,1.8,0,2.6,0C58,31.2,53.9,22,49.8,12.8z M43.9,28.8c1.7-3.9,3.5-7.8,5.2-11.8
		c1.7,3.9,3.5,7.8,5.2,11.8H43.9z"/>
	<path d="M184.6,12.8c-0.5,0-0.9,0-1.4,0c-4.1,9.2-8.2,18.4-12.3,27.5c0.9,0,1.8,0,2.6,0c1.4-3.1,2.7-6.2,4.1-9.3H190
		c1.4,3.1,2.7,6.2,4.1,9.3c0.9,0,1.8,0,2.6,0C192.8,31.2,188.7,22,184.6,12.8z M178.7,28.8c1.7-3.9,3.5-7.8,5.2-11.8
		c1.7,3.9,3.5,7.8,5.2,11.8H178.7z"/>
</g>
</svg>
